<svg width="22" height="21" viewBox="0 0 22 21" fill="none" xmlns="http://www.w3.org/2000/svg">
<g id="Technologies logos">
<path id="Vector" d="M11 1.73761C6.31543 1.73761 2.4826 5.57044 2.4826 10.255C2.4826 14.9396 6.31543 18.7724 11 18.7724C15.6846 18.7724 19.5174 14.9396 19.5174 10.255C19.5174 5.57044 15.6846 1.73761 11 1.73761ZM6.25496 15.0001C4.97735 13.7224 4.30788 12.019 4.30788 10.3768L10.9395 16.9471C9.23605 16.8867 7.53257 16.2777 6.25496 15.0001ZM12.4599 16.7649L4.49016 8.79513C5.15962 5.81404 7.83664 3.56289 11 3.56289C13.2512 3.56289 15.1982 4.65823 16.4145 6.30038L15.5023 7.09165C14.4666 5.69224 12.8253 4.77832 11 4.77832C8.62706 4.77832 6.61951 6.29953 5.82909 8.42888L12.8253 15.4251C14.5892 14.8169 15.9282 13.2957 16.354 11.4713H13.4334V10.255H17.6921C17.6921 13.4184 15.441 16.0954 12.4599 16.7649Z" fill="#607B96"/>
</g>
</svg>
